{"title":"Meet.Joe.Black.1998.DVDRip.XviD[ENG]-NWO","uid":5534585,"size":731844613,"categoryP":"video","categoryS":"movies","magnet":"?xt=urn:btih:51fc9d5ed4233e5c15fd02a0bb01851197e70187&amp;dn=Meet.Joe.Black.1998.DVDRip.XviD%5BENG%5D-NWO&amp;tr=udp%3A%2F%2Ftracker.openbittorrent.com%3A80&amp;tr=udp%3A%2F%2Fopen.demonii.com%3A1337&amp;tr=udp%3A%2F%2Ftracker.coppersurfer.tk%3A6969&amp;tr=udp%3A%2F%2Fexodus.desync.com%3A6969","seeders":0,"leechers":0,"uploader":"TerraWatt","files":3,"time":1273028285,"description":"Format : AVI\nFormat/Info : Audio Video Interleave\nFile size : 697 MiB\nDuration : 3h 0mn\nOverall bit rate : 540 Kbps\nWriting application : VirtualDubMod 1.5.10.2 (build 2540/release)\nWriting library : VirtualDubMod build 2540/release\n\nVideo\nID : 0\nFormat : MPEG-4 Visual\nFormat profile : Advanced Simple@L5\nFormat settings, BVOP : Yes\nFormat settings, QPel : No\nFormat settings, GMC : No warppoints\nFormat settings, Matrix : Default (H.263)\nCodec ID : DIVX\nCodec ID/Info : Project Mayo\nCodec ID/Hint : DivX 4\nDuration : 3h 0mn\nBit rate : 422 Kbps\nWidth : 656 pixels\nHeight : 352 pixels\nDisplay aspect ratio : 1.864\nFrame rate : 23.976 fps\nResolution : 8 bits\nColorimetry : 4:2:0\nScan type : Progressive\nBits/(Pixel*Frame) : 0.076\nStream size : 544 MiB (78%)\nWriting library : XviD 1.2.1 (UTC 2008-12-04)\n\nAudio\nID : 1\nFormat : MPEG Audio\nFormat version : Version 1\nFormat profile : Layer 3\nFormat_Settings_Mode : Joint stereo\nFormat_Settings_ModeExtension : MS Stereo\nCodec ID : 55\nCodec ID/Hint : MP3\nDuration : 3h 0mn\nBit rate mode : Variable\nBit rate : 106 Kbps\nChannel(s) : 2 channels\nSampling rate : 44.1 KHz\nStream size : 137 MiB (20%)\nAlignment : Aligned on interleaves\nInterleave, duration : 26 ms (0.63 video frame)\nInterleave, preload duration : 180 ms\nWriting library : LAME3.90.\nEncoding settings : -m j -V 4 -q 2 -lowpass 16 --abr 106","torrent":{"xt":"urn:btih:51fc9d5ed4233e5c15fd02a0bb01851197e70187","amp;dn":"Meet.Joe.Black.1998.DVDRip.XviD%5BENG%5D-NWO","amp;tr":["udp%3A%2F%2Ftracker.openbittorrent.com%3A80","udp%3A%2F%2Fopen.demonii.com%3A1337","udp%3A%2F%2Ftracker.coppersurfer.tk%3A6969","udp%3A%2F%2Fexodus.desync.com%3A6969"],"infoHash":"51fc9d5ed4233e5c15fd02a0bb01851197e70187","infoHashBuffer":{"type":"Buffer","data":[81,252,157,94,212,35,62,92,21,253,2,160,187,1,133,17,151,231,1,135]},"announce":[],"urlList":[]}}